<?xml version="1.0" encoding="UTF-8" standalone="no"?>
<svg viewBox="0 0 800 600" xmlns="http://www.w3.org/2000/svg">
  <defs>
    <style>
      @keyframes wave {
        0% { transform: translateX(0); }
        100% { transform: translateX(-40px); }
      }
      @keyframes pulse {
        0% { opacity: 0.3; }
        50% { opacity: 1; }
        100% { opacity: 0.3; }
      }
      @keyframes spin {
        0% { transform: rotate(0deg); }
        100% { transform: rotate(360deg); }
      }
      @keyframes blink {
        0%, 100% { opacity: 0.1; }
        50% { opacity: 0.8; }
      }
      @keyframes flow {
        0% { stroke-dashoffset: 200; }
        100% { stroke-dashoffset: 0; }
      }
      .wave { animation: wave 3s linear infinite; }
      .pulse { animation: pulse 3s infinite; }
      .spin { animation: spin 10s linear infinite; }
      .blink { animation: blink 2s infinite; }
      .flow { animation: flow 4s linear infinite; }
      text { font-family: Arial, sans-serif; }
    </style>
    
    <!-- Gradients -->
    <linearGradient id="deviceGradient" x1="0%" y1="0%" x2="100%" y2="100%">
      <stop offset="0%" stop-color="#e0e0e0" />
      <stop offset="100%" stop-color="#a0a0a0" />
    </linearGradient>
    
    <linearGradient id="brainGradient" x1="0%" y1="0%" x2="100%" y2="100%">
      <stop offset="0%" stop-color="#f0f9ff" />
      <stop offset="100%" stop-color="#c2e9fb" />
    </linearGradient>
    
    <linearGradient id="signalGradient" x1="0%" y1="0%" x2="100%" y2="0%">
      <stop offset="0%" stop-color="#FF6B6B" />
      <stop offset="50%" stop-color="#FFD166" />
      <stop offset="100%" stop-color="#06D6A0" />
    </linearGradient>
    
    <!-- Filters -->
    <filter id="glow" x="-20%" y="-20%" width="140%" height="140%">
      <feGaussianBlur stdDeviation="5" result="blur" />
      <feComposite in="SourceGraphic" in2="blur" operator="over" />
    </filter>
  </defs>
  
  <!-- Background -->
  <rect x="0" y="0" width="800" height="600" fill="#f8f9fa" />
  
  <!-- Title -->
  <text x="400" y="40" font-size="24" font-weight="bold" text-anchor="middle" fill="#333">Adaptive Feedback Control System</text>
  
  <!-- Brain Model with Response Monitoring -->
  <g transform="translate(170, 180)">
    <text x="0" y="-30" font-size="16" font-weight="bold" text-anchor="middle" fill="#333">Neural Response Monitoring</text>
    
    <!-- Brain Outline -->
    <path d="M0,0 C40,-10 80,10 100,50 C120,90 100,130 80,150 C60,170 20,170 0,150 C-20,130 -40,90 -20,50 C0,10 -40,-10 0,0" 
          fill="url(#brainGradient)" stroke="#333" stroke-width="2" />
    
    <!-- EEG Electrodes -->
    <circle cx="-10" cy="30" r="5" fill="#e0e0e0" stroke="#333" stroke-width="1" />
    <circle cx="30" cy="20" r="5" fill="#e0e0e0" stroke="#333" stroke-width="1" />
    <circle cx="70" cy="40" r="5" fill="#e0e0e0" stroke="#333" stroke-width="1" />
    <circle cx="60" cy="80" r="5" fill="#e0e0e0" stroke="#333" stroke-width="1" />
    <circle cx="20" cy="100" r="5" fill="#e0e0e0" stroke="#333" stroke-width="1" />
    <circle cx="-10" cy="70" r="5" fill="#e0e0e0" stroke="#333" stroke-width="1" />
    
    <!-- Stimulation Sites (Pulse Animation) -->
    <circle class="pulse" cx="30" cy="60" r="8" fill="#FF6B6B" stroke="#333" stroke-width="1" />
    <circle class="pulse" cx="-5" cy="90" r="8" fill="#06D6A0" stroke="#333" stroke-width="1" />
    
    <!-- Neural Response Waves -->
    <path class="wave" d="M-50,200 C-40,190 -30,210 -20,200 C-10,190 0,210 10,200 C20,190 30,210 40,200 C50,190 60,210 70,200 C80,190 90,210 100,200" 
          fill="none" stroke="#3498db" stroke-width="2" />
    
    <!-- Response Icons -->
    <g transform="translate(-40, 180)">
      <rect x="-30" y="-15" width="60" height="30" rx="5" fill="#f5f5f5" stroke="#333" stroke-width="1" />
      <text x="0" y="5" font-size="10" text-anchor="middle" fill="#333">Amplitude</text>
    </g>
    
    <g transform="translate(40, 180)">
      <rect x="-30" y="-15" width="60" height="30" rx="5" fill="#f5f5f5" stroke="#333" stroke-width="1" />
      <text x="0" y="5" font-size="10" text-anchor="middle" fill="#333">Latency</text>
    </g>
    
    <g transform="translate(0, 230)">
      <rect x="-40" y="-15" width="80" height="30" rx="5" fill="#f5f5f5" stroke="#333" stroke-width="1" />
      <text x="0" y="5" font-size="10" text-anchor="middle" fill="#333">Coherence</text>
    </g>
  </g>
  
  <!-- Feedback Control System -->
  <g transform="translate(400, 300)">
    <text x="0" y="-140" font-size="16" font-weight="bold" text-anchor="middle" fill="#333">Adaptive Control Loop</text>
    
    <!-- Control Loop Diagram -->
    <circle cx="0" cy="0" r="100" fill="none" stroke="#333" stroke-width="2" stroke-dasharray="5,3" />
    
    <!-- Loop Components -->
    <g transform="translate(0, -100)">
      <rect x="-50" y="-20" width="100" height="40" rx="5" fill="#f5f5f5" stroke="#333" stroke-width="1" />
      <text x="0" y="5" font-size="12" text-anchor="middle" fill="#333">Stimulation</text>
    </g>
    
    <g transform="translate(100, 0)">
      <rect x="-50" y="-20" width="100" height="40" rx="5" fill="#f5f5f5" stroke="#333" stroke-width="1" />
      <text x="0" y="5" font-size="12" text-anchor="middle" fill="#333">Neural Response</text>
    </g>
    
    <g transform="translate(0, 100)">
      <rect x="-50" y="-20" width="100" height="40" rx="5" fill="#f5f5f5" stroke="#333" stroke-width="1" />
      <text x="0" y="5" font-size="12" text-anchor="middle" fill="#333">Error Analysis</text>
    </g>
    
    <g transform="translate(-100, 0)">
      <rect x="-50" y="-20" width="100" height="40" rx="5" fill="#f5f5f5" stroke="#333" stroke-width="1" />
      <text x="0" y="5" font-size="12" text-anchor="middle" fill="#333">Parameter Update</text>
    </g>
    
    <!-- Flow Arrows -->
    <path class="flow" d="M0,-80 C30,-80 70,-30 70,0" fill="none" stroke="#333" stroke-width="2" stroke-dasharray="8,4" marker-end="url(#arrowMarker)" />
    <path class="flow" d="M70,0 C70,30 30,80 0,80" fill="none" stroke="#333" stroke-width="2" stroke-dasharray="8,4" marker-end="url(#arrowMarker)" />
    <path class="flow" d="M0,80 C-30,80 -70,30 -70,0" fill="none" stroke="#333" stroke-width="2" stroke-dasharray="8,4" marker-end="url(#arrowMarker)" />
    <path class="flow" d="M-70,0 C-70,-30 -30,-80 0,-80" fill="none" stroke="#333" stroke-width="2" stroke-dasharray="8,4" marker-end="url(#arrowMarker)" />
    
    <!-- Central Controller -->
    <g class="spin">
      <circle cx="0" cy="0" r="30" fill="#3498db" opacity="0.7" />
      <path d="M-15,-15 L15,15 M-15,15 L15,-15" stroke="white" stroke-width="4" />
    </g>
    <text x="0" y="0" font-size="10" text-anchor="middle" fill="white" font-weight="bold">ML</text>
  </g>
  
  <!-- Parameter Adjustment Panel -->
  <g transform="translate(620, 180)">
    <text x="0" y="-30" font-size="16" font-weight="bold" text-anchor="middle" fill="#333">Parameter Adjustments</text>
    
    <!-- Control Panel Background -->
    <rect x="-100" y="-10" width="200" height="220" rx="10" fill="#f5f5f5" stroke="#333" stroke-width="2" />
    
    <!-- Parameter Sliders -->
    <g transform="translate(0, 20)">
      <text x="-80" y="5" font-size="12" text-anchor="start" fill="#333">Amplitude:</text>
      <rect x="-20" y="0" width="100" height="10" rx="5" fill="#e0e0e0" stroke="#333" stroke-width="1" />
      <circle cx="30" cy="5" r="8" fill="#3498db" stroke="#333" stroke-width="1">
        <animate attributeName="cx" values="30;60;30" dur="5s" repeatCount="indefinite" />
      </circle>
    </g>
    
    <g transform="translate(0, 50)">
      <text x="-80" y="5" font-size="12" text-anchor="start" fill="#333">Frequency:</text>
      <rect x="-20" y="0" width="100" height="10" rx="5" fill="#e0e0e0" stroke="#333" stroke-width="1" />
      <circle cx="50" cy="5" r="8" fill="#3498db" stroke="#333" stroke-width="1">
        <animate attributeName="cx" values="50;20;50" dur="7s" repeatCount="indefinite" />
      </circle>
    </g>
    
    <g transform="translate(0, 80)">
      <text x="-80" y="5" font-size="12" text-anchor="start" fill="#333">Phase:</text>
      <rect x="-20" y="0" width="100" height="10" rx="5" fill="#e0e0e0" stroke="#333" stroke-width="1" />
      <circle cx="10" cy="5" r="8" fill="#3498db" stroke="#333" stroke-width="1">
        <animate attributeName="cx" values="10;70;10" dur="6s" repeatCount="indefinite" />
      </circle>
    </g>
    
    <g transform="translate(0, 110)">
      <text x="-80" y="5" font-size="12" text-anchor="start" fill="#333">Duration:</text>
      <rect x="-20" y="0" width="100" height="10" rx="5" fill="#e0e0e0" stroke="#333" stroke-width="1" />
      <circle cx="40" cy="5" r="8" fill="#3498db" stroke="#333" stroke-width="1">
        <animate attributeName="cx" values="40;10;40" dur="8s" repeatCount="indefinite" />
      </circle>
    </g>
    
    <!-- Current Metrics Display -->
    <g transform="translate(0, 150)">
      <rect x="-90" y="0" width="180" height="40" rx="5" fill="#3498db" opacity="0.2" stroke="#333" stroke-width="1" />
      <text x="0" y="15" font-size="12" text-anchor="middle" fill="#333">Response Metrics</text>
      <text x="-60" y="32" font-size="10" text-anchor="start" fill="#333">Error: 0.15</text>
      <text x="20" y="32" font-size="10" text-anchor="start" fill="#333">Improvement: 28%</text>
    </g>
  </g>
  
  <!-- Stimulation Device Visualization -->
  <g transform="translate(170, 450)">
    <text x="0" y="-30" font-size="16" font-weight="bold" text-anchor="middle" fill="#333">Stimulation Devices</text>
    
    <!-- Device 1 -->
    <g transform="translate(-70, 0)">
      <rect x="-30" y="-40" width="60" height="80" rx="10" fill="url(#deviceGradient)" stroke="#333" stroke-width="2" />
      <text x="0" y="-20" font-size="10" text-anchor="middle" fill="#333">Device 1</text>
      <circle class="blink" cx="0" cy="10" r="5" fill="#27ae60" />
      <text x="0" y="30" font-size="8" text-anchor="middle" fill="#333">Channel A</text>
    </g>
    
    <!-- Device 2 -->
    <g transform="translate(0, 0)">
      <rect x="-30" y="-40" width="60" height="80" rx="10" fill="url(#deviceGradient)" stroke="#333" stroke-width="2" />
      <text x="0" y="-20" font-size="10" text-anchor="middle" fill="#333">Device 2</text>
      <circle class="blink" cx="0" cy="10" r="5" fill="#e74c3c" />
      <text x="0" y="30" font-size="8" text-anchor="middle" fill="#333">Channel B</text>
    </g>
    
    <!-- Device 3 -->
    <g transform="translate(70, 0)">
      <rect x="-30" y="-40" width="60" height="80" rx="10" fill="url(#deviceGradient)" stroke="#333" stroke-width="2" />
      <text x="0" y="-20" font-size="10" text-anchor="middle" fill="#333">Device 3</text>
      <circle class="blink" cx="0" cy="10" r="5" fill="#f39c12" />
      <text x="0" y="30" font-size="8" text-anchor="middle" fill="#333">Channel C</text>
    </g>
    
    <!-- Wireless Connection Indicators -->
    <path class="flow" d="M-70,-50 C-40,-70 40,-70 70,-50" fill="none" stroke="#3498db" stroke-width="1.5" stroke-dasharray="5,3" />
    <circle class="pulse" cx="-70" cy="-50" r="5" fill="#3498db" />
    <circle class="pulse" cx="0" cy="-65" r="5" fill="#3498db" />
    <circle class="pulse" cx="70" cy="-50" r="5" fill="#3498db" />
  </g>
  
  <!-- Response Visualization Panel -->
  <g transform="translate(620, 430)">
    <text x="0" y="-30" font-size="16" font-weight="bold" text-anchor="middle" fill="#333">Response Analysis</text>
    
    <!-- Graph Panel -->
    <rect x="-100" y="-10" width="200" height="120" rx="5" fill="#f5f5f5" stroke="#333" stroke-width="2" />
    
    <!-- Axes -->
    <line x1="-80" y1="90" x2="80" y2="90" stroke="#333" stroke-width="1" />
    <line x1="-80" y1="90" x2="-80" y2="0" stroke="#333" stroke-width="1" />
    
    <!-- Before/After Response Curves -->
    <path d="M-80,60 C-60,70 -40,50 -20,65 C0,80 20,60 40,70 C60,80 70,50 80,60" 
          fill="none" stroke="#e74c3c" stroke-width="2" stroke-dasharray="3,2" />
    
    <path class="wave" d="M-80,40 C-60,20 -40,45 -20,25 C0,5 20,30 40,15 C60,0 70,20 80,10" 
          fill="none" stroke="#27ae60" stroke-width="2" />
    
    <!-- Legend -->
    <g transform="translate(0, 110)">
      <line x1="-60" y1="0" x2="-40" y2="0" stroke="#e74c3c" stroke-width="2" stroke-dasharray="3,2" />
      <text x="-30" y="5" font-size="10" text-anchor="start" fill="#333">Before</text>
      
      <line x1="0" y1="0" x2="20" y2="0" stroke="#27ae60" stroke-width="2" />
      <text x="30" y="5" font-size="10" text-anchor="start" fill="#333">After</text>
    </g>
  </g>
  
  <!-- Arrow Marker Definition -->
  <defs>
    <marker id="arrowMarker" markerWidth="10" markerHeight="10" refX="7" refY="3" orient="auto">
      <path d="M0,0 L0,6 L9,3 Z" fill="#333" />
    </marker>
  </defs>
  
  <!-- Footer -->
  <text x="400" y="580" font-size="12" text-anchor="middle" fill="#666">Real-time adjustment of stimulation parameters based on neural feedback</text>
</svg>
