<?xml version="1.0" encoding="UTF-8" standalone="no"?>
<svg viewBox="0 0 800 600" xmlns="http://www.w3.org/2000/svg">
  <defs>
    <style>
      @keyframes pulse {
        0% { opacity: 0.3; }
        50% { opacity: 1; }
        100% { opacity: 0.3; }
      }
      @keyframes flash {
        0%, 100% { opacity: 0.2; }
        50% { opacity: 1; }
      }
      @keyframes wave {
        0% { transform: translateX(0); }
        100% { transform: translateX(50px); }
      }
      @keyframes travel {
        0% { stroke-dashoffset: 300; }
        100% { stroke-dashoffset: 0; }
      }
      @keyframes sequential {
        0%, 100% { opacity: 0.2; }
        10% { opacity: 1; }
      }
      .pulse { animation: pulse 2s infinite; }
      .flash1 { animation: flash 2s infinite; }
      .flash2 { animation: flash 2s infinite; animation-delay: 0.4s; }
      .flash3 { animation: flash 2s infinite; animation-delay: 0.8s; }
      .flash4 { animation: flash 2s infinite; animation-delay: 1.2s; }
      .flash5 { animation: flash 2s infinite; animation-delay: 1.6s; }
      .wave { animation: wave 3s infinite alternate ease-in-out; }
      .travel { animation: travel 6s infinite linear; }
      .sequential1 { animation: sequential 3s infinite; animation-delay: 0s; }
      .sequential2 { animation: sequential 3s infinite; animation-delay: 0.5s; }
      .sequential3 { animation: sequential 3s infinite; animation-delay: 1s; }
      .sequential4 { animation: sequential 3s infinite; animation-delay: 1.5s; }
      .sequential5 { animation: sequential 3s infinite; animation-delay: 2s; }
      text { font-family: Arial, sans-serif; }
    </style>
    
    <!-- Gradients -->
    <linearGradient id="blueGradient" x1="0%" y1="0%" x2="100%" y2="100%">
      <stop offset="0%" stop-color="#c2e9fb" />
      <stop offset="100%" stop-color="#a1c4fd" />
    </linearGradient>
    
    <radialGradient id="brainGradient" cx="50%" cy="50%" r="50%" fx="50%" fy="50%">
      <stop offset="0%" stop-color="#f5f5f5" />
      <stop offset="100%" stop-color="#e0e0e0" />
    </radialGradient>
    
    <!-- Filters -->
    <filter id="shadow" x="-20%" y="-20%" width="140%" height="140%">
      <feGaussianBlur stdDeviation="3" result="blur" />
      <feColorMatrix in="blur" type="matrix" values="0 0 0 0 0  0 0 0 0 0  0 0 0 0 0  0 0 0 0.3 0" />
      <feComposite in="SourceGraphic" in2="blur" operator="over" />
    </filter>
  </defs>
  
  <!-- Background -->
  <rect x="0" y="0" width="800" height="600" fill="#f8f9fa" />
  
  <!-- Title -->
  <text x="400" y="40" font-size="24" font-weight="bold" text-anchor="middle" fill="#333">Spatiotemporal Stimulation Patterns</text>
  
  <!-- Brain Outline with Stimulation Sites -->
  <g transform="translate(400, 300)">
    <!-- Brain Outline -->
    <path d="M-160,0 C-150,-80 -100,-120 -30,-140 C20,-155 70,-140 120,-100 C160,-65 170,-20 170,20 
             C170,60 150,90 120,110 C80,135 30,145 -30,140 C-100,130 -150,80 -160,0 Z" 
          fill="url(#brainGradient)" stroke="#666" stroke-width="2" filter="url(#shadow)" />
    
    <!-- Stimulation Sites -->
    <circle class="sequential1" cx="-100" cy="-60" r="15" fill="#3498db" opacity="0.7" />
    <circle class="sequential2" cx="-20" cy="-90" r="15" fill="#3498db" opacity="0.7" />
    <circle class="sequential3" cx="70" cy="-70" r="15" fill="#3498db" opacity="0.7" />
    <circle class="sequential4" cx="100" cy="10" r="15" fill="#3498db" opacity="0.7" />
    <circle class="sequential5" cx="50" cy="80" r="15" fill="#3498db" opacity="0.7" />
    
    <!-- Neural Pathways -->
    <path class="travel" d="M-100,-60 C-80,-80 -50,-90 -20,-90 C10,-90 40,-85 70,-70 C90,-60 100,-30 100,10 C100,40 80,70 50,80" 
          fill="none" stroke="#3498db" stroke-width="3" stroke-dasharray="7 3" stroke-linecap="round" />
    
    <!-- Stimulation Labels -->
    <text x="-100" y="-80" font-size="12" text-anchor="middle" fill="#333">Site 1</text>
    <text x="-20" y="-110" font-size="12" text-anchor="middle" fill="#333">Site 2</text>
    <text x="70" y="-90" font-size="12" text-anchor="middle" fill="#333">Site 3</text>
    <text x="120" y="10" font-size="12" text-anchor="middle" fill="#333">Site 4</text>
    <text x="50" y="100" font-size="12" text-anchor="middle" fill="#333">Site 5</text>
  </g>
  
  <!-- Stimulation Pattern Diagrams -->
  <g transform="translate(150, 500)">
    <!-- Sequential Pattern -->
    <text x="0" y="-40" font-size="14" font-weight="bold" text-anchor="middle" fill="#333">Sequential Stimulation</text>
    
    <line x1="-100" y1="0" x2="100" y2="0" stroke="#ccc" stroke-width="1" />
    
    <rect class="flash1" x="-90" y="-20" width="20" height="40" fill="#3498db" opacity="0.7" />
    <rect class="flash2" x="-45" y="-20" width="20" height="40" fill="#3498db" opacity="0.7" />
    <rect class="flash3" x="0" y="-20" width="20" height="40" fill="#3498db" opacity="0.7" />
    <rect class="flash4" x="45" y="-20" width="20" height="40" fill="#3498db" opacity="0.7" />
    <rect class="flash5" x="90" y="-20" width="20" height="40" fill="#3498db" opacity="0.7" />
    
    <text x="-80" y="30" font-size="10" text-anchor="middle" fill="#666">t=0ms</text>
    <text x="-35" y="30" font-size="10" text-anchor="middle" fill="#666">t=50ms</text>
    <text x="10" y="30" font-size="10" text-anchor="middle" fill="#666">t=100ms</text>
    <text x="55" y="30" font-size="10" text-anchor="middle" fill="#666">t=150ms</text>
    <text x="100" y="30" font-size="10" text-anchor="middle" fill="#666">t=200ms</text>
  </g>
  
  <g transform="translate(550, 500)">
    <!-- Phase-Differential Pattern -->
    <text x="0" y="-40" font-size="14" font-weight="bold" text-anchor="middle" fill="#333">Phase-Differential</text>
    
    <line x1="-100" y1="0" x2="100" y2="0" stroke="#ccc" stroke-width="1" />
    
    <!-- Sine Waves with Phase Differences -->
    <path class="wave" d="M-100,0 C-90,20 -80,-20 -70,0 C-60,20 -50,-20 -40,0 C-30,20 -20,-20 -10,0 C0,20 10,-20 20,0 C30,20 40,-20 50,0 C60,20 70,-20 80,0 C90,20 100,-20 110,0" 
          fill="none" stroke="#3498db" stroke-width="2" />
    
    <path class="wave" d="M-100,0 C-90,-20 -80,20 -70,0 C-60,-20 -50,20 -40,0 C-30,-20 -20,20 -10,0 C0,-20 10,20 20,0 C30,-20 40,20 50,0 C60,-20 70,20 80,0 C90,-20 100,20 110,0" 
          fill="none" stroke="#e74c3c" stroke-width="2" stroke-dasharray="5 2" />
    
    <text x="-80" y="30" font-size="10" text-anchor="middle" fill="#3498db">0°</text>
    <text x="0" y="30" font-size="10" text-anchor="middle" fill="#e74c3c">180°</text>
  </g>
  
  <!-- Explanatory Text -->
  <g transform="translate(400, 150)">
    <rect x="-250" y="-30" width="500" height="60" rx="10" ry="10" fill="#f0f4f8" stroke="#d0d7de" stroke-width="1" />
    <text x="0" y="-10" font-size="12" text-anchor="middle" fill="#333">
      Spatiotemporal stimulation follows natural neural activation patterns,
    </text>
    <text x="0" y="10" font-size="12" text-anchor="middle" fill="#333">
      delivering precisely timed stimuli along specific neural pathways to
    </text>
    <text x="0" y="30" font-size="12" text-anchor="middle" fill="#333">
      optimize circuit reorganization and enhance functional recovery.
    </text>
  </g>
  
  <!-- Legend -->
  <g transform="translate(680, 560)">
    <text x="0" y="0" font-size="10" text-anchor="end" fill="#666">© 2025 Adaptive Neural</text>
    <text x="0" y="15" font-size="10" text-anchor="end" fill="#666">Stimulation System</text>
  </g>
</svg>