<?xml version="1.0" encoding="UTF-8" standalone="no"?>
<svg viewBox="0 0 800 600" xmlns="http://www.w3.org/2000/svg">
  <defs>
    <style>
      @keyframes pulse {
        0% { opacity: 0.3; }
        50% { opacity: 1; }
        100% { opacity: 0.3; }
      }
      @keyframes wave {
        0% { transform: translateX(0); }
        100% { transform: translateX(-40px); }
      }
      @keyframes flash {
        0%, 100% { opacity: 0.2; }
        50% { opacity: 0.8; }
      }
      .brain-wave { animation: wave 2s linear infinite; }
      .brain-area { animation: pulse 3s infinite; }
      .signal-path { animation: flash 2s infinite; }
      .signal-circle { animation: pulse 1.5s infinite; }
      text { font-family: Arial, sans-serif; }
    </style>
    
    <!-- Brain gradient -->
    <linearGradient id="brainGradient" x1="0%" y1="0%" x2="100%" y2="100%">
      <stop offset="0%" stop-color="#f0f9ff" />
      <stop offset="100%" stop-color="#c2e9fb" />
    </linearGradient>
    
    <!-- Signal gradient -->
    <linearGradient id="signalGradient" x1="0%" y1="0%" x2="100%" y2="0%">
      <stop offset="0%" stop-color="#84fab0" />
      <stop offset="100%" stop-color="#8fd3f4" />
    </linearGradient>

    <!-- Electrode gradient -->
    <linearGradient id="electrodeGradient" x1="0%" y1="0%" x2="100%" y2="100%">
      <stop offset="0%" stop-color="#e6e6e6" />
      <stop offset="100%" stop-color="#808080" />
    </linearGradient>
    
    <!-- Plasticity glow -->
    <filter id="plasticityGlow" x="-20%" y="-20%" width="140%" height="140%">
      <feGaussianBlur stdDeviation="5" result="blur" />
      <feComposite in="SourceGraphic" in2="blur" operator="over" />
    </filter>
  </defs>
  
  <!-- Background -->
  <rect x="0" y="0" width="800" height="600" fill="#f8f9fa" />
  
  <!-- Title -->
  <text x="400" y="50" font-size="24" font-weight="bold" text-anchor="middle" fill="#333">Adaptive Phase-Differential Brain Nerve Stimulation</text>
  
  <!-- Brain Outline -->
  <path d="M400,150 C500,130 550,200 560,270 C570,340 530,400 480,440 C430,480 370,480 320,440 C270,400 230,340 240,270 C250,200 300,130 400,150" 
        fill="url(#brainGradient)" stroke="#666" stroke-width="2" />
  
  <!-- Brain Areas -->
  <ellipse class="brain-area" cx="330" cy="280" rx="40" ry="30" fill="#ff9999" opacity="0.7" />
  <text x="330" y="280" font-size="12" text-anchor="middle" fill="#333">Motor</text>
  
  <ellipse class="brain-area" cx="470" cy="280" rx="40" ry="30" fill="#99ccff" opacity="0.7" />
  <text x="470" y="280" font-size="12" text-anchor="middle" fill="#333">Sensory</text>
  
  <ellipse class="brain-area" cx="400" cy="220" rx="45" ry="35" fill="#99ff99" opacity="0.7" />
  <text x="400" y="220" font-size="12" text-anchor="middle" fill="#333">Cognitive</text>
  
  <ellipse class="brain-area" cx="400" cy="340" rx="30" ry="25" fill="#ffcc99" opacity="0.7" />
  <text x="400" y="340" font-size="12" text-anchor="middle" fill="#333">Limbic</text>
  
  <!-- Neural Connections -->
  <path class="signal-path" d="M330,280 C350,260 380,240 400,220" fill="none" stroke="#ff6666" stroke-width="2" stroke-dasharray="5,3" />
  <path class="signal-path" d="M470,280 C450,260 420,240 400,220" fill="none" stroke="#6699ff" stroke-width="2" stroke-dasharray="5,3" />
  <path class="signal-path" d="M330,280 C350,310 380,330 400,340" fill="none" stroke="#ff9966" stroke-width="2" stroke-dasharray="5,3" />
  <path class="signal-path" d="M470,280 C450,310 420,330 400,340" fill="none" stroke="#66cc99" stroke-width="2" stroke-dasharray="5,3" />
  
  <!-- EEG Electrodes -->
  <circle cx="300" cy="200" r="10" fill="url(#electrodeGradient)" stroke="#333" stroke-width="1" />
  <circle cx="500" cy="200" r="10" fill="url(#electrodeGradient)" stroke="#333" stroke-width="1" />
  <circle cx="350" cy="150" r="10" fill="url(#electrodeGradient)" stroke="#333" stroke-width="1" />
  <circle cx="450" cy="150" r="10" fill="url(#electrodeGradient)" stroke="#333" stroke-width="1" />
  
  <!-- Stimulation Electrodes -->
  <circle cx="300" cy="350" r="12" fill="#ff6666" stroke="#333" stroke-width="1">
    <animate attributeName="r" values="12;14;12" dur="2s" repeatCount="indefinite" />
  </circle>
  <circle cx="500" cy="350" r="12" fill="#6699ff" stroke="#333" stroke-width="1">
    <animate attributeName="r" values="12;14;12" dur="2s" repeatCount="indefinite" begin="1s" />
  </circle>
  
  <!-- Phase-Differential Waves -->
  <g transform="translate(200, 500)">
    <text x="0" y="-50" font-size="14" font-weight="bold" fill="#333">Phase-Differential Stimulation</text>
    
    <!-- Wave 1 -->
    <path class="brain-wave" d="M0,0 C10,-20 20,-20 30,0 C40,20 50,20 60,0 C70,-20 80,-20 90,0 C100,20 110,20 120,0 C130,-20 140,-20 150,0 C160,20 170,20 180,0 C190,-20 200,-20 210,0 C220,20 230,20 240,0 C250,-20 260,-20 270,0 C280,20 290,20 300,0" 
          fill="none" stroke="#ff6666" stroke-width="3" />
    
    <!-- Wave 2 -->
    <path class="brain-wave" d="M0,0 C10,20 20,20 30,0 C40,-20 50,-20 60,0 C70,20 80,20 90,0 C100,-20 110,-20 120,0 C130,20 140,20 150,0 C160,-20 170,-20 180,0 C190,20 200,20 210,0 C220,-20 230,-20 240,0 C250,20 260,20 270,0 C280,-20 290,-20 300,0" 
          fill="none" stroke="#6699ff" stroke-width="3" />
  </g>
  
  <!-- System Components -->
  <g transform="translate(50, 150)">
    <rect x="0" y="0" width="150" height="300" rx="10" ry="10" fill="#fff" stroke="#333" stroke-width="2" />
    <text x="75" y="30" font-size="14" font-weight="bold" text-anchor="middle" fill="#333">System Components</text>
    
    <!-- Component Icons -->
    <rect x="20" y="50" width="110" height="35" rx="5" ry="5" fill="#f0f9ff" stroke="#666" />
    <text x="75" y="73" font-size="12" text-anchor="middle" fill="#333">EEG Monitoring</text>
    
    <rect x="20" y="100" width="110" height="35" rx="5" ry="5" fill="#f0f9ff" stroke="#666" />
    <text x="75" y="123" font-size="12" text-anchor="middle" fill="#333">Brainwave Sync</text>
    
    <rect x="20" y="150" width="110" height="35" rx="5" ry="5" fill="#f0f9ff" stroke="#666" />
    <text x="75" y="173" font-size="12" text-anchor="middle" fill="#333">Neural Plasticity</text>
    
    <rect x="20" y="200" width="110" height="35" rx="5" ry="5" fill="#f0f9ff" stroke="#666" />
    <text x="75" y="223" font-size="12" text-anchor="middle" fill="#333">Adaptive Feedback</text>
    
    <rect x="20" y="250" width="110" height="35" rx="5" ry="5" fill="#f0f9ff" stroke="#666" />
    <text x="75" y="273" font-size="12" text-anchor="middle" fill="#333">Wireless Control</text>
  </g>
  
  <!-- Neural Plasticity Visualization -->
  <g transform="translate(600, 200)">
    <circle cx="0" cy="0" r="40" fill="none" stroke="#666" stroke-width="1" stroke-dasharray="5,3" />
    <circle cx="50" cy="50" r="40" fill="none" stroke="#666" stroke-width="1" stroke-dasharray="5,3" />
    
    <!-- Neural Connections Before -->
    <line x1="-20" y1="-20" x2="30" y2="30" stroke="#999" stroke-width="1" />
    <line x1="20" y1="-20" x2="70" y2="30" stroke="#999" stroke-width="1" />
    <line x1="-20" y1="20" x2="30" y2="70" stroke="#999" stroke-width="1" />
    
    <!-- Neural Connections After (Enhanced) -->
    <line x1="-15" y1="-15" x2="35" y2="35" stroke="#3498db" stroke-width="3" opacity="0.8">
      <animate attributeName="opacity" values="0.4;0.8;0.4" dur="3s" repeatCount="indefinite" />
    </line>
    <line x1="15" y1="-15" x2="65" y2="35" stroke="#3498db" stroke-width="3" opacity="0.8">
      <animate attributeName="opacity" values="0.4;0.8;0.4" dur="3s" repeatCount="indefinite" begin="1s" />
    </line>
    
    <text x="25" y="-50" font-size="14" font-weight="bold" fill="#333" text-anchor="middle">Neural Plasticity</text>
    <text x="25" y="100" font-size="12" fill="#333" text-anchor="middle">Enhanced Connections</text>
  </g>
  
  <!-- Signal Transmission Indicators -->
  <circle class="signal-circle" cx="300" cy="230" r="5" fill="#ff6666" />
  <circle class="signal-circle" cx="350" cy="210" r="5" fill="#ff6666" />
  <circle class="signal-circle" cx="400" cy="220" r="5" fill="#ff6666" />
  
  <circle class="signal-circle" cx="500" cy="230" r="5" fill="#6699ff" />
  <circle class="signal-circle" cx="450" cy="210" r="5" fill="#6699ff" />
  <circle class="signal-circle" cx="400" cy="220" r="5" fill="#6699ff" />
  
  <!-- Footer -->
  <text x="400" y="580" font-size="12" text-anchor="middle" fill="#666">Adaptive neural stimulation promotes circuit reconstruction through phase-differential techniques</text>
</svg>
